<?xml version="1.0" encoding="UTF-8" standalone="no"?>
<svg
   xmlns:dc="http://purl.org/dc/elements/1.1/"
   xmlns:cc="http://creativecommons.org/ns#"
   xmlns:rdf="http://www.w3.org/1999/02/22-rdf-syntax-ns#"
   xmlns:svg="http://www.w3.org/2000/svg"
   xmlns="http://www.w3.org/2000/svg"
   xmlns:xlink="http://www.w3.org/1999/xlink"
   height="28.635437"
   id="svg1"
   version="1.0"
   viewBox="0 0 28.800001 28.635437"
   width="28.800001">
  <metadata
     id="metadata1517">
    <rdf:RDF>
      <cc:Work
         rdf:about="">
        <dc:format>image/svg+xml</dc:format>
        <dc:type
           rdf:resource="http://purl.org/dc/dcmitype/StillImage" />
        <dc:title />
      </cc:Work>
    </rdf:RDF>
  </metadata>
  <defs
     id="defs3">
    <linearGradient
       id="linearGradient5704">
      <stop
         id="stop5706"
         offset="0"
         style="stop-color:#5a5a5a;stop-opacity:1" />
      <stop
         id="stop5708"
         offset="1"
         style="stop-color:#000000;stop-opacity:1" />
    </linearGradient>
    <linearGradient
       id="linearGradient6684">
      <stop
         id="stop6686"
         offset="0"
         style="stop-color:#ffbf00;stop-opacity:1" />
      <stop
         id="stop6688"
         offset="1"
         style="stop-color:#ffffff;stop-opacity:1" />
    </linearGradient>
    <linearGradient
       id="linearGradient700">
      <stop
         id="stop347"
         offset="0"
         style="stop-color:#376796;stop-opacity:1" />
      <stop
         id="stop348"
         offset="1"
         style="stop-color:#b0dde2;stop-opacity:1" />
    </linearGradient>
    <filter
       id="filter8476"
       style="color-interpolation-filters:sRGB">
      <feColorMatrix
         id="feColorMatrix8478"
         values="0.21 0.72 0.072 0 0 0.21 0.72 0.072 0 0 0.21 0.72 0.072 0 0 0 0 0 1 0 " />
    </filter>
    <linearGradient
       gradientTransform="matrix(0.97755,-0.211918,0.218379,1.018965,-62.10329,4.028774)"
       gradientUnits="userSpaceOnUse"
       id="linearGradient9515"
       x1="99.279373"
       x2="95.750748"
       xlink:href="#linearGradient700"
       y1="121.4717"
       y2="118.6402" />
    <linearGradient
       gradientTransform="matrix(1,0,0,1.005747,-443,-167.4216)"
       gradientUnits="userSpaceOnUse"
       id="linearGradient9517"
       x1="501.36981"
       x2="498.01831"
       xlink:href="#linearGradient6684"
       y1="278.69321"
       y2="275.9288" />
    <linearGradient
       gradientTransform="matrix(1,0,0,1.005747,-444.4008,-168.4784)"
       gradientUnits="userSpaceOnUse"
       id="linearGradient9519"
       x1="497.19919"
       x2="501.15671"
       xlink:href="#linearGradient5704"
       y1="276.5925"
       y2="279.68689" />
  </defs>
  <g
     transform="translate(-561.63884,-263.93977)"
     id="draw-polylines">
    <path
       d="m 567.36063,287.80853 c 3.83668,-9.63849 3.83668,-9.54491 3.83668,-9.54491 m -0.28073,0 c -6.08254,-4.5853 -6.08254,-4.49172 -6.08254,-4.49172 l 0,0 c 11.2293,-4.95961 11.32288,-5.05319 11.32288,-5.05319"
       id="path9540"
       style="fill:none;fill-rule:evenodd;stroke:#000000;stroke-width:1px;stroke-linecap:butt;stroke-linejoin:miter;stroke-opacity:1" />
    <rect
       height="24"
       id="rect9505"
       style="color:#000000;fill:none;filter:url(#filter8476)"
       transform="matrix(1,0,0,0.994286,524.03884,167.89174)"
       width="24"
       x="40"
       y="99" />
    <g
       id="g9532">
      <path
         d="m 54.74801,112.7209 -2.02196,5.3521 c -0.41924,1.2317 1.29973,1.89 1.73578,0.6129 l 2.07236,-5.2546"
         id="path9497"
         style="fill:#ffffff;fill-opacity:0.75;fill-rule:evenodd;stroke:#000000;stroke-width:1.20344317;stroke-linecap:round;stroke-linejoin:round;filter:url(#filter8476)"
         transform="matrix(1,0,0,0.994286,524.03884,167.89174)" />
      <path
         d="m 53.30533,107.4469 0.79348,1.188 5.92422,2.4368 1.5611,-0.5121 1.98917,-5.534 c -2.5,0 -0.5,-6.03453 -7,-6.03453 l -3.26797,8.45583 z"
         id="path9499"
         style="fill:url(#linearGradient9515);fill-rule:evenodd;filter:url(#filter8476)"
         transform="matrix(1,0,0,0.994286,524.03884,167.89174)" />
      <path
         d="m 54.2095,108.7548 -0.91109,3.3199 5,1.9101 1.91507,-3.0918"
         id="path9501"
         style="fill:url(#linearGradient9517);fill-rule:evenodd;stroke:url(#linearGradient9519);stroke-width:1.00286937px;stroke-linecap:round;stroke-linejoin:round;filter:url(#filter8476)"
         transform="matrix(1,0,0,0.994286,524.03884,167.89174)" />
      <path
         d="m 63.5733,105.5284 -1.73917,4.3275 c -0.23117,0.7551 -1.18676,1.3635 -1.67929,1.0399 -1.81427,-1.1919 -3.78289,-2.0079 -5.98567,-2.2653 -0.42201,-0.0493 -0.90938,-1.1851 -0.71897,-1.691 l 3.1231,-7.44555"
         id="path9503"
         style="fill:none;stroke:#000000;stroke-width:0.9850955;stroke-linecap:round;stroke-linejoin:round;filter:url(#filter8476)"
         transform="matrix(1,0,0,0.994286,524.03884,167.89174)" />
      <path
         d="m 53,112.5776 4.5,2.0115 1.5,-3.0173 -4.5,-1.5086 -1.5,2.5144 z"
         id="path9511"
         style="fill:none;filter:url(#filter8476)"
         transform="matrix(1,0,0,0.994286,524.03884,167.89174)" />
      <path
         d="m 56,106.5431 2.5,-6.0345"
         id="path9513"
         style="fill:none;stroke:#ffffff;stroke-width:1.00286937px;stroke-linecap:round;filter:url(#filter8476)"
         transform="matrix(1,0,0,0.994286,524.03884,167.89174)" />
    </g>
    <rect
       height="2.047694"
       id="rect9548"
       style="fill:#ffffff;fill-opacity:1;stroke:#000000;stroke-width:0.95230591;stroke-linecap:round;stroke-linejoin:round;stroke-miterlimit:4;stroke-dasharray:none;stroke-dashoffset:0;stroke-opacity:1"
       width="2.047694"
       x="575.47809"
       y="267.72418" />
    <rect
       height="2.047694"
       id="rect9550"
       style="fill:#ffffff;fill-opacity:1;stroke:#000000;stroke-width:0.95230591;stroke-linecap:round;stroke-linejoin:round;stroke-miterlimit:4;stroke-dasharray:none;stroke-dashoffset:0;stroke-opacity:1"
       width="2.047694"
       x="569.7699"
       y="277.36267" />
    <rect
       height="2.047694"
       id="rect9552"
       style="fill:#ffffff;fill-opacity:1;stroke:#000000;stroke-width:0.95230591;stroke-linecap:round;stroke-linejoin:round;stroke-miterlimit:4;stroke-dasharray:none;stroke-dashoffset:0;stroke-opacity:1"
       width="2.047694"
       x="563.78094"
       y="272.87094" />
    <path
       d="m 567.46673,288.2961 c 8.70271,1.02936 8.70271,1.02936 8.70271,1.02936"
       id="path9600"
       style="fill:none;fill-rule:evenodd;stroke:#000000;stroke-width:1px;stroke-linecap:butt;stroke-linejoin:miter;stroke-opacity:1" />
    <rect
       height="2.047694"
       id="rect9598"
       style="fill:#ffffff;fill-opacity:1;stroke:#000000;stroke-width:0.95230591;stroke-linecap:round;stroke-linejoin:round;stroke-miterlimit:4;stroke-dasharray:none;stroke-dashoffset:0;stroke-opacity:1"
       width="2.047694"
       x="566.12036"
       y="287.28189" />
    <rect
       height="2.047694"
       id="rect9603"
       style="fill:#ffffff;fill-opacity:1;stroke:#000000;stroke-width:0.95230591;stroke-linecap:round;stroke-linejoin:round;stroke-miterlimit:4;stroke-dasharray:none;stroke-dashoffset:0;stroke-opacity:1"
       width="2.047694"
       x="575.66528"
       y="288.40482" />
  </g>
</svg>
