<?xml version="1.0" encoding="UTF-8" standalone="no"?>
<svg
   xmlns:dc="http://purl.org/dc/elements/1.1/"
   xmlns:cc="http://creativecommons.org/ns#"
   xmlns:rdf="http://www.w3.org/1999/02/22-rdf-syntax-ns#"
   xmlns:svg="http://www.w3.org/2000/svg"
   xmlns="http://www.w3.org/2000/svg"
   xmlns:xlink="http://www.w3.org/1999/xlink"
   height="26.45595"
   id="svg1"
   version="1.0"
   viewBox="0 0 24.487772 26.45595"
   width="24.487772">
  <metadata
     id="metadata1514">
    <rdf:RDF>
      <cc:Work
         rdf:about="">
        <dc:format>image/svg+xml</dc:format>
        <dc:type
           rdf:resource="http://purl.org/dc/dcmitype/StillImage" />
        <dc:title />
      </cc:Work>
    </rdf:RDF>
  </metadata>
  <defs
     id="defs3">
    <linearGradient
       id="linearGradient5704">
      <stop
         id="stop5706"
         offset="0"
         style="stop-color:#5a5a5a;stop-opacity:1" />
      <stop
         id="stop5708"
         offset="1"
         style="stop-color:#000000;stop-opacity:1" />
    </linearGradient>
    <linearGradient
       id="linearGradient6684">
      <stop
         id="stop6686"
         offset="0"
         style="stop-color:#ffbf00;stop-opacity:1" />
      <stop
         id="stop6688"
         offset="1"
         style="stop-color:#ffffff;stop-opacity:1" />
    </linearGradient>
    <linearGradient
       id="linearGradient700">
      <stop
         id="stop347"
         offset="0"
         style="stop-color:#376796;stop-opacity:1" />
      <stop
         id="stop348"
         offset="1"
         style="stop-color:#b0dde2;stop-opacity:1" />
    </linearGradient>
    <filter
       id="filter8476"
       style="color-interpolation-filters:sRGB">
      <feColorMatrix
         id="feColorMatrix8478"
         values="0.21 0.72 0.072 0 0 0.21 0.72 0.072 0 0 0.21 0.72 0.072 0 0 0 0 0 1 0 " />
    </filter>
    <linearGradient
       gradientTransform="matrix(0.97755,-0.211918,0.218379,1.018965,-62.10329,4.028774)"
       gradientUnits="userSpaceOnUse"
       id="linearGradient9442"
       x1="99.279373"
       x2="95.750748"
       xlink:href="#linearGradient700"
       y1="121.4717"
       y2="118.6402" />
    <linearGradient
       gradientTransform="matrix(1,0,0,1.005747,-443,-167.4216)"
       gradientUnits="userSpaceOnUse"
       id="linearGradient9444"
       x1="501.36981"
       x2="498.01831"
       xlink:href="#linearGradient6684"
       y1="278.69321"
       y2="275.9288" />
    <linearGradient
       gradientTransform="matrix(1,0,0,1.005747,-444.4008,-168.4784)"
       gradientUnits="userSpaceOnUse"
       id="linearGradient9446"
       x1="497.19919"
       x2="501.15671"
       xlink:href="#linearGradient5704"
       y1="276.5925"
       y2="279.68689" />
  </defs>
  <g
     transform="translate(-490.22482,-263.62422)"
     id="draw-splines">
    <path
       d="m 54.74801,112.7209 -2.02196,5.3521 c -0.41924,1.2317 1.29973,1.89 1.73578,0.6129 l 2.07236,-5.2546"
       id="path9374"
       style="fill:#ffffff;fill-opacity:0.75;fill-rule:evenodd;stroke:#000000;stroke-width:1.20344317;stroke-linecap:round;stroke-linejoin:round;filter:url(#filter8476)"
       transform="matrix(1,0,0,0.994286,450.1125,166.39995)" />
    <path
       d="m 53.30533,107.4469 0.79348,1.188 5.92422,2.4368 1.5611,-0.5121 1.98917,-5.534 c -2.5,0 -0.5,-6.03453 -7,-6.03453 l -3.26797,8.45583 z"
       id="path9376"
       style="fill:url(#linearGradient9442);fill-rule:evenodd;filter:url(#filter8476)"
       transform="matrix(1,0,0,0.994286,450.1125,166.39995)" />
    <path
       d="m 54.2095,108.7548 -0.91109,3.3199 5,1.9101 1.91507,-3.0918"
       id="path9378"
       style="fill:url(#linearGradient9444);fill-rule:evenodd;stroke:url(#linearGradient9446);stroke-width:1.00286937px;stroke-linecap:round;stroke-linejoin:round;filter:url(#filter8476)"
       transform="matrix(1,0,0,0.994286,450.1125,166.39995)" />
    <path
       d="m 63.5733,105.5284 -1.73917,4.3275 c -0.23117,0.7551 -1.18676,1.3635 -1.67929,1.0399 -1.81427,-1.1919 -3.78289,-2.0079 -5.98567,-2.2653 -0.42201,-0.0493 -0.90938,-1.1851 -0.71897,-1.691 l 3.1231,-7.44555"
       id="path9380"
       style="fill:none;stroke:#000000;stroke-width:0.9850955;stroke-linecap:round;stroke-linejoin:round;filter:url(#filter8476)"
       transform="matrix(1,0,0,0.994286,450.1125,166.39995)" />
    <path
       d="m 53,112.5776 4.5,2.0115 1.5,-3.0173 -4.5,-1.5086 -1.5,2.5144 z"
       id="path9388"
       style="fill:none;filter:url(#filter8476)"
       transform="matrix(1,0,0,0.994286,450.1125,166.39995)" />
    <path
       d="m 56,106.5431 2.5,-6.0345"
       id="path9390"
       style="fill:none;stroke:#ffffff;stroke-width:1.00286937px;stroke-linecap:round;filter:url(#filter8476)"
       transform="matrix(1,0,0,0.994286,450.1125,166.39995)" />
    <g
       id="g9593"
       transform="translate(-23.20723,0.84219787)">
      <path
         d="m 525.34431,267.22147 c -6.65978,-4.09923 -3.18442,10.55408 -7.73165,11.69894 -5.36524,1.61609 -5.20557,12.27917 2.75814,9.29633 2.83211,-1.31999 2.93706,-1.25331 4.22559,-2.18558"
         id="path9554"
         style="fill:none;fill-rule:evenodd;stroke:#000000;stroke-width:1px;stroke-linecap:butt;stroke-linejoin:miter;stroke-opacity:1" />
      <rect
         height="2.047694"
         id="rect9584"
         style="fill:#ffffff;fill-opacity:1;stroke:#000000;stroke-width:0.95230591;stroke-linecap:round;stroke-linejoin:round;stroke-miterlimit:4;stroke-dasharray:none;stroke-dashoffset:0;stroke-opacity:1"
         width="2.047694"
         x="523.82336"
         y="285.41034" />
      <rect
         height="2.047694"
         id="rect9586"
         style="fill:#ffffff;fill-opacity:1;stroke:#000000;stroke-width:0.95230591;stroke-linecap:round;stroke-linejoin:round;stroke-miterlimit:4;stroke-dasharray:none;stroke-dashoffset:0;stroke-opacity:1"
         width="2.047694"
         x="524.47839"
         y="265.85266" />
    </g>
    <rect
       height="2.047694"
       id="rect9605"
       style="fill:#ffffff;fill-opacity:1;stroke:#000000;stroke-width:0.95230591;stroke-linecap:round;stroke-linejoin:round;stroke-miterlimit:4;stroke-dasharray:none;stroke-dashoffset:0;stroke-opacity:1"
       width="2.047694"
       x="493.59778"
       y="278.85989" />
    <rect
       height="2.047694"
       id="rect9607"
       style="fill:#ffffff;fill-opacity:1;stroke:#000000;stroke-width:0.95230591;stroke-linecap:round;stroke-linejoin:round;stroke-miterlimit:4;stroke-dasharray:none;stroke-dashoffset:0;stroke-opacity:1"
       width="2.047694"
       x="496.49869"
       y="269.50214" />
  </g>
</svg>
